# xmcd
#
# Track frame offsets: 
#        150
#        33835
#        76599
#        103628
#        124870
#        154373
#        176609
#        195793
#        229486
#        263461
#        292164
#
# Disc length: 4408 seconds
#
# Revision: 1
# Processed by: cddbd v1.5.2PL0 Copyright (c) Steve Scherf et al.
# Submitted via: ExactAudioCopy v0.95b4
#
DISCID=8911360b
DTITLE=Louis L'Amour - High-Lonesome1
DYEAR=1962
DGENRE=Booty Bass
TTITLE0=Chapter 09 (2 of 2)
TTITLE1=Chapter 10 (1 of 3)
TTITLE2=Chapter 10 (2 of 3)
TTITLE3=Chapter 10 (3 of 3)
TTITLE4=Chapter 11 (1 of 2)
TTITLE5=Chapter 11 (2 of 2)
TTITLE6=Chapter 12 (1 of 2)
TTITLE7=Chapter 12 (2 of 2)
TTITLE8=Chapter 13 (1 of 3)
TTITLE9=Chapter 13 (2 of 3)
TTITLE10=Chapter 13 (3 of 3)
EXTD=by Louis L'Amour read by David Strathairn\nRandom House Inc - boot
EXTD=y bass =western
EXTT0=
EXTT1=
EXTT2=
EXTT3=
EXTT4=
EXTT5=
EXTT6=
EXTT7=
EXTT8=
EXTT9=
EXTT10=
PLAYORDER=
